# Blender 5.1.0
# www.blender.org
mtllib cube.mtl
o Cube
v -1.000000 -1.000000 1.000000
v -1.000000 1.000000 1.000000
v -1.000000 -1.000000 -1.000000
v -1.000000 1.000000 -1.000000
v 1.000000 -1.000000 1.000000
v 1.000000 1.000000 1.000000
v 1.000000 -1.000000 -1.000000
v 1.000000 1.000000 -1.000000
vn -1.0000 -0.0000 -0.0000
vn -0.0000 -0.0000 -1.0000
vn 1.0000 -0.0000 -0.0000
vn -0.0000 -0.0000 1.0000
vn -0.0000 -1.0000 -0.0000
vn -0.0000 1.0000 -0.0000
vt 0.000778 1.000778
vt 0.000794 0.499640
vt 0.500775 0.499222
vt 0.500778 1.000773
vt 0.500778 0.499222
vt 0.500762 1.000360
vt 0.000781 1.000778
vt 0.000778 0.499227
vt 1.001410 0.501844
vt 0.999310 1.000288
vt 0.499310 1.000288
vt 0.501429 0.502263
vt 0.000000 0.000000
vt 0.500031 -0.000217
vt 0.501138 0.500016
vt 0.000000 0.500000
s 0
usemtl Material.001
f 1/1/1 2/2/1 4/3/1 3/4/1
f 3/5/2 4/6/2 8/7/2 7/8/2
f 7/9/3 8/10/3 6/11/3 5/12/3
f 5/5/4 6/6/4 2/7/4 1/8/4
f 3/13/5 7/14/5 5/15/5 1/16/5
f 8/13/6 4/14/6 2/15/6 6/16/6
